# Blender v3.1.2 OBJ File: 'spaceship-1.blend'
# www.blender.org
o Cube
v -4.500000 0.800000 0.527762
v -4.500000 -0.800000 0.767763
v -4.500000 0.800000 -0.527762
v -4.500000 -0.800000 -0.767763
v 2.996029 2.874007 1.208575
v 3.500000 -1.000000 3.000000
v 2.996029 2.874007 -1.208575
v 3.500000 -1.000000 -3.000000
v 4.500000 0.200000 1.731194
v 4.500000 0.200000 -1.731194
v 4.500000 1.800000 -1.251194
v 4.500000 1.800000 1.251194
v -1.034419 1.866395 0.705433
v -1.435519 -0.258891 1.610466
v -1.034419 1.866395 -0.705433
v -1.435519 -0.258891 -1.610466
v -4.300000 0.200000 0.200000
v -4.300000 -0.200000 0.200000
v -4.300000 0.200000 -0.200000
v -4.300000 -0.200000 -0.200000
v 4.500000 0.000000 2.000000
v 4.500000 0.000000 -2.000000
v 4.500000 2.000000 -1.400000
v 4.500000 2.000000 1.400000
v 4.300000 0.200000 1.731194
v 4.300000 0.200000 -1.731194
v 4.300000 1.800000 -1.251194
v 4.300000 1.800000 1.251194
v -1.430144 0.060249 -1.549523
v 3.500000 2.734892 -2.100000
v -1.430144 0.060249 1.549523
v 3.500000 2.734892 2.100000
v -4.500000 1.000000 -0.700000
v -4.500000 1.000000 0.700000
v 2.567566 0.306771 2.480052
v 2.567566 0.306771 -2.480052
v 2.567519 -0.056618 -2.560565
v 2.567519 -0.056618 2.560565
v 1.778341 2.424305 -1.798710
v 1.778341 2.424305 1.798710
v 1.724037 2.556009 -1.376941
v 1.724037 2.556009 1.376941
v 1.538070 3.090282 -0.884093
v 2.591155 3.258532 -0.787564
v 1.538070 3.090282 0.884093
v -0.601587 2.395622 -0.564346
v 2.666240 3.304292 0.682923
v -0.601587 2.395622 0.564346
v 1.302322 3.401597 0.000000
v 2.170293 3.475585 -0.003009
v 0.078881 2.947949 0.000000
v -4.500000 -1.000000 -1.000000
v 2.686991 -1.000000 -2.796748
v 0.956731 0.896991 -8.261271
v 1.956731 0.896991 -8.261271
v 3.500000 -1.000000 0.000000
v 3.500000 2.734892 0.000000
v -4.500000 -1.000000 0.000000
v 4.500000 0.000000 0.000000
v 4.500000 2.000000 0.000000
v -4.500000 0.800000 0.000000
v -4.500000 -0.800000 0.000000
v -4.300000 0.800000 0.000000
v -4.300000 -0.800000 0.000000
v 4.500000 0.200000 0.000000
v 4.500000 1.800000 0.000000
v 4.300000 0.200000 0.000000
v 4.300000 1.800000 0.000000
v -4.500000 1.000000 0.000000
v -1.239796 1.846424 0.000000
v 3.167455 2.916864 0.000000
v 2.686991 -1.000000 0.000000
v -0.806963 2.375651 0.000000
v 2.733079 3.281207 0.000000
v -4.500000 -1.000000 1.000000
v 2.686991 -1.000000 2.796748
v 0.956731 0.896991 8.261271
v 1.956731 0.896991 8.261271
v -4.300000 0.800000 -0.527762
v -4.300000 -0.800000 -0.767763
v -4.300000 0.800000 0.000000
v -4.300000 0.800000 0.527762
v -4.300000 -0.800000 0.767763
v -4.300000 -0.800000 0.000000
v -4.300000 0.800000 -0.527762
v -4.300000 -0.800000 -0.767763
v -4.300000 0.200000 0.000000
v -4.300000 0.800000 0.527762
v -4.300000 -0.800000 0.767763
v -4.300000 -0.200000 0.000000
v -6.000000 0.000000 0.000000
vt 0.258272 0.874061
vt 0.280143 0.833312
vt 0.315606 0.845296
vt 0.625076 0.437827
vt 0.525737 0.507899
vt 0.552919 0.423616
vt 0.333491 0.139364
vt 0.000272 0.093000
vt 0.333491 0.009696
vt 0.853494 0.076348
vt 0.846856 0.046120
vt 0.854851 0.045306
vt 0.315606 0.774890
vt 0.238664 0.688665
vt 0.243505 0.653401
vt 0.455153 0.462669
vt 0.515289 0.484622
vt 0.520339 0.494714
vt 0.800126 0.279001
vt 0.828601 0.557142
vt 0.638357 0.569550
vt 0.387654 0.511803
vt 0.564852 0.584792
vt 0.845834 0.286771
vt 0.845834 0.556244
vt 0.779708 0.098426
vt 0.864047 0.082737
vt 0.772155 0.111832
vt 0.754010 0.058074
vt 0.763103 0.057012
vt 0.396642 0.247385
vt 0.371729 0.237978
vt 0.396642 0.213141
vt 0.450957 0.403535
vt 0.477262 0.350408
vt 0.458495 0.405020
vt 0.539678 0.421008
vt 0.483658 0.359861
vt 0.541232 0.352897
vt 0.843749 0.071009
vt 0.217890 0.408843
vt 0.084470 0.460196
vt 0.085576 0.439430
vt 0.446433 0.466961
vt 0.847313 0.015130
vt 0.769744 0.011633
vt 0.838995 0.022546
vt 0.546152 0.422283
vt 0.371729 0.188304
vt 0.396642 0.178897
vt 0.864047 0.044369
vt 0.518590 0.063736
vt 0.371729 0.021790
vt 0.518186 0.048673
vt 0.025271 0.320899
vt 0.084361 0.291698
vt 0.085486 0.312478
vt 0.227535 0.375914
vt 0.384610 0.343158
vt 0.384624 0.375867
vt 0.549731 0.345473
vt 0.211037 0.685692
vt 0.202662 0.652186
vt 0.714683 0.002479
vt 0.709181 0.047567
vt 0.217950 0.342994
vt 0.277732 0.780545
vt 0.222399 0.731186
vt 0.371186 0.139364
vt 0.371186 0.000272
vt 0.828601 0.582502
vt 0.800126 0.860643
vt 0.638357 0.570094
vt 0.160729 0.813546
vt 0.188059 0.701312
vt 0.196783 0.800980
vt 0.671869 0.167636
vt 0.709246 0.064821
vt 0.753466 0.000272
vt 0.753466 0.178353
vt 0.214115 0.847183
vt 0.251182 0.845449
vt 0.193501 0.875935
vt 0.235601 0.783900
vt 0.244481 0.819496
vt 0.147132 0.588179
vt 0.000272 0.630125
vt 0.002107 0.536413
vt 0.146728 0.603241
vt 0.343225 0.649435
vt 0.300410 0.484278
vt 0.337788 0.587094
vt 0.625620 0.578141
vt 0.845834 0.583399
vt 0.845835 0.852873
vt 0.385168 0.689751
vt 0.545081 0.917389
vt 0.501381 0.932878
vt 0.779068 0.020970
vt 0.167202 0.672478
vt 0.000272 0.376016
vt 0.002330 0.279001
vt 0.333491 0.269033
vt 0.464655 0.456347
vt 0.559725 0.335320
vt 0.625076 0.279001
vt 0.786323 0.087274
vt 0.433435 0.279349
vt 0.470820 0.343130
vt 0.385168 0.390578
vt 0.000272 0.895313
vt 0.160185 0.667674
vt 0.160185 0.999728
vt 0.025355 0.431091
vt 0.017890 0.376002
vt 0.000272 0.185729
vt 0.000272 0.139364
vt 0.856300 0.006402
vt 0.384624 0.408574
vt 0.625620 0.561503
vt 0.382008 0.473560
vt 0.382008 0.651642
vt 0.337722 0.604348
vt 0.786540 0.086042
vt 0.843298 0.070444
vt 0.838776 0.023582
vt 0.773839 0.055805
vt 0.773114 0.055935
vt 0.846360 0.046191
vt 0.779614 0.021857
vt 0.820301 0.058608
vt 0.803117 0.060171
vt 0.818306 0.040867
vt 0.802049 0.051777
vt 0.819376 0.049707
vt 0.801035 0.043269
vt 0.421554 0.237978
vt 0.421554 0.188304
vt 0.468574 0.407005
vt 0.759014 0.000272
vt 0.373564 0.115502
vt 0.545081 0.585336
vt 0.371186 0.278457
vt 0.116485 0.652186
vt 0.002483 0.473016
vn 0.7078 0.6953 0.1250
vn 0.7071 -0.7071 0.0000
vn 0.0000 -1.0000 0.0000
vn -0.3188 0.4788 0.8180
vn 0.0000 -0.2873 0.9578
vn -0.0354 0.9932 -0.1112
vn 0.5938 0.1885 -0.7823
vn 0.9944 0.0226 0.1028
vn -1.0000 0.0000 0.0000
vn -0.1168 0.9932 0.0000
vn 1.0000 0.0000 0.0000
vn 0.0000 -0.1483 0.9889
vn -0.3023 0.8981 0.3194
vn 0.0000 -0.1483 -0.9889
vn 0.0000 1.0000 0.0000
vn -0.1168 -0.9932 0.0000
vn -0.2351 0.1861 0.9540
vn -0.1908 0.9298 -0.3149
vn -0.2513 0.9679 0.0000
vn -0.7579 0.6199 0.2031
vn -0.2358 0.2078 0.9493
vn -0.2407 0.9621 -0.1284
vn -0.3364 0.8431 0.4195
vn -0.0354 0.9932 0.1112
vn -0.3028 0.5871 -0.7507
vn -0.0967 0.7396 0.6661
vn -0.2340 0.2177 0.9476
vn -0.2362 0.2276 0.9447
vn 0.6366 0.7590 -0.1366
vn -0.0798 0.6966 -0.7130
vn -0.3202 0.8636 -0.3895
vn 0.3257 0.9416 -0.0858
vn -0.1202 0.9384 -0.3241
vn -0.2225 0.1446 -0.9641
vn -0.2377 0.1997 -0.9506
vn -0.2340 0.2177 -0.9476
vn -0.9424 0.0780 -0.3254
vn 0.9944 0.0226 -0.1028
vn 0.0000 -0.9863 -0.1650
vn -0.1778 0.2177 0.9597
vn -0.5352 0.8284 -0.1654
vn -0.7195 0.6521 -0.2388
vn 0.2661 0.9639 0.0000
vn 0.0000 -0.2873 -0.9578
vn 0.5938 0.1885 0.7823
vn -0.5352 0.8284 0.1654
vn 0.3265 0.9452 0.0000
vn 0.5922 0.8058 0.0000
vn 0.0100 -0.9858 0.1677
vn 0.4777 0.8730 0.0987
vn -0.1208 0.9391 0.3218
vn -0.2424 0.9692 0.0431
vn -0.1908 0.9298 0.3149
vn -0.9424 0.0780 0.3254
vn -0.2362 0.2276 -0.9447
vn -0.1778 0.2177 -0.9597
vn -0.1632 0.2134 -0.9632
vn -0.2077 0.2286 -0.9511
vn -0.1632 0.2134 0.9632
vn -0.2077 0.2286 0.9511
vn 0.0000 0.0000 1.0000
vn -0.1168 0.0000 0.9932
vn -0.1168 0.0000 -0.9932
vn 0.6422 0.7656 0.0370
vn -0.3028 0.5871 0.7507
vn 0.0000 0.9948 -0.1016
vn 0.6613 0.2155 -0.7185
vn -0.2407 0.9621 0.1284
vn -0.2225 0.1446 0.9641
vn -0.2164 0.9386 -0.2688
vn -0.2424 0.9692 -0.0431
vn -0.7195 0.6521 0.2388
vn -0.2377 0.1997 0.9506
vn -0.3023 0.8981 -0.3194
vn -0.3202 0.8636 0.3895
vn 0.0000 0.9948 0.1016
vn -0.3188 0.4788 -0.8180
vn 0.0023 0.6785 0.7346
vn -0.2097 0.1833 0.9604
vn 0.6184 0.7774 -0.1153
vn -0.0391 0.6701 -0.7412
vn -0.3364 0.8431 -0.4195
vn -0.0808 0.9332 -0.3501
vn -0.2351 0.1861 -0.9540
vn -0.2358 0.2078 -0.9493
vn -0.2097 0.1833 -0.9604
vn 0.0100 -0.9858 -0.1677
vn -0.7579 0.6199 -0.2031
vn 0.4777 0.8730 -0.0987
vn 0.6613 0.2155 0.7185
vn 0.0000 -0.9863 0.1650
vn -0.0784 0.9336 0.3496
vn -0.2164 0.9386 0.2688
s off
f 71/1/1 47/2/1 5/3/1
f 56/4/2 22/5/2 59/6/2
f 72/7/3 52/8/3 53/9/3
f 3/10/3 81/11/3 61/12/3
f 42/13/4 48/14/4 13/15/4
f 11/16/5 26/17/5 10/18/5
f 77/19/6 35/20/6 31/21/6
f 30/22/7 22/5/7 8/23/7
f 35/20/8 78/24/8 38/25/8
f 4/26/9 33/27/9 52/28/9
f 4/26/9 58/29/9 62/30/9
f 87/31/10 19/32/10 91/33/10
f 60/34/11 12/35/11 66/36/11
f 67/37/11 28/38/11 25/39/11
f 4/26/12 79/40/12 3/10/12
f 13/41/13 40/42/13 42/43/13
f 10/18/11 23/44/11 11/16/11
f 81/11/3 1/45/3 61/12/3
f 11/16/11 60/34/11 66/36/11
f 58/29/9 2/46/9 62/30/9
f 82/47/14 2/46/14 1/45/14
f 10/18/15 67/37/15 65/48/15
f 20/49/16 90/50/16 91/33/16
f 1/45/9 69/51/9 61/12/9
f 31/52/17 75/53/17 14/54/17
f 7/55/18 39/56/18 41/57/18
f 70/58/19 33/59/19 69/60/19
f 9/61/11 59/6/11 65/48/11
f 13/15/20 73/62/20 70/63/20
f 14/54/21 76/64/21 38/65/21
f 15/66/22 39/56/22 33/59/22
f 45/67/23 51/68/23 48/14/23
f 56/69/3 53/9/3 8/70/3
f 36/71/24 54/72/24 29/73/24
f 41/74/25 46/75/25 43/76/25
f 47/2/26 42/13/26 5/3/26
f 40/77/27 31/52/27 35/78/27
f 76/64/28 6/79/28 32/80/28
f 71/1/29 44/81/29 74/82/29
f 41/74/30 44/81/30 7/83/30
f 28/38/3 66/36/3 12/35/3
f 43/76/31 51/68/31 49/84/31
f 74/82/32 44/81/32 50/85/32
f 43/76/33 50/85/33 44/81/33
f 29/86/34 52/87/34 33/88/34
f 16/89/35 53/90/35 52/87/35
f 29/86/36 39/91/36 36/92/36
f 16/93/37 29/73/37 54/72/37
f 36/71/38 37/94/38 55/95/38
f 37/96/39 54/97/39 55/98/39
f 38/65/40 76/64/40 32/80/40
f 83/99/15 62/30/15 2/46/15
f 46/75/41 73/62/41 51/68/41
f 15/100/42 73/62/42 46/75/42
f 7/55/43 57/101/43 30/102/43
f 56/69/3 76/103/3 72/7/3
f 27/104/11 67/37/11 26/17/11
f 66/36/3 27/104/3 11/16/3
f 25/39/44 12/35/44 9/61/44
f 56/4/2 21/105/2 6/106/2
f 62/30/15 80/107/15 4/26/15
f 21/105/45 32/108/45 6/106/45
f 48/14/46 51/68/46 73/62/46
f 10/18/11 59/6/11 22/5/11
f 74/82/47 50/85/47 47/2/47
f 24/109/48 57/110/48 32/108/48
f 57/110/48 23/44/48 30/22/48
f 3/10/9 69/51/9 33/27/9
f 38/111/49 77/112/49 14/113/49
f 5/114/50 57/101/50 71/115/50
f 50/85/51 45/67/51 47/2/51
f 67/37/15 9/61/15 65/48/15
f 24/109/11 9/61/11 12/35/11
f 72/7/3 75/116/3 58/117/3
f 2/46/9 34/118/9 1/45/9
f 70/58/52 34/119/52 13/41/52
f 40/42/53 5/114/53 42/43/53
f 14/120/54 77/19/54 31/21/54
f 53/90/55 30/121/55 8/122/55
f 37/123/56 30/121/56 53/90/56
f 36/92/57 30/121/57 37/123/57
f 39/91/58 30/121/58 36/92/58
f 35/78/59 38/65/59 32/80/59
f 40/77/60 35/78/60 32/80/60
f 86/124/61 79/40/61 80/107/61
f 85/125/61 81/11/61 79/40/61
f 88/126/61 83/99/61 82/47/61
f 64/127/61 80/107/61 84/128/61
f 63/129/61 82/47/61 81/11/61
f 89/130/61 84/128/61 83/99/61
f 19/131/9 86/124/9 20/132/9
f 19/131/9 63/129/9 85/125/9
f 17/133/9 89/130/9 88/126/9
f 20/132/9 64/127/9 90/134/9
f 17/133/9 63/129/9 87/135/9
f 18/136/9 64/127/9 89/130/9
f 17/137/10 87/31/10 91/33/10
f 18/138/62 17/137/62 91/33/62
f 19/32/63 20/49/63 91/33/63
f 90/50/16 18/138/16 91/33/16
f 71/1/64 74/82/64 47/2/64
f 56/4/2 8/23/2 22/5/2
f 72/7/3 58/117/3 52/8/3
f 3/10/3 79/40/3 81/11/3
f 42/13/65 45/67/65 48/14/65
f 11/16/5 27/104/5 26/17/5
f 77/19/66 78/24/66 35/20/66
f 30/22/67 23/44/67 22/5/67
f 4/26/9 3/10/9 33/27/9
f 4/26/9 52/28/9 58/29/9
f 60/34/11 24/109/11 12/35/11
f 67/37/11 68/139/11 28/38/11
f 4/26/12 80/107/12 79/40/12
f 13/41/68 34/119/68 40/42/68
f 10/18/11 22/5/11 23/44/11
f 81/11/3 82/47/3 1/45/3
f 11/16/11 23/44/11 60/34/11
f 58/29/9 75/140/9 2/46/9
f 82/47/14 83/99/14 2/46/14
f 10/18/15 26/17/15 67/37/15
f 1/45/9 34/118/9 69/51/9
f 31/52/69 34/141/69 75/53/69
f 7/55/70 30/102/70 39/56/70
f 70/58/71 15/66/71 33/59/71
f 9/61/11 21/105/11 59/6/11
f 13/15/72 48/14/72 73/62/72
f 14/54/73 75/53/73 76/64/73
f 15/66/74 41/57/74 39/56/74
f 45/67/75 49/84/75 51/68/75
f 56/69/3 72/7/3 53/9/3
f 36/71/76 55/95/76 54/72/76
f 41/74/77 15/100/77 46/75/77
f 47/2/78 45/67/78 42/13/78
f 40/77/79 34/141/79 31/52/79
f 71/1/80 7/83/80 44/81/80
f 41/74/81 43/76/81 44/81/81
f 28/38/3 68/139/3 66/36/3
f 43/76/82 46/75/82 51/68/82
f 43/76/83 49/84/83 50/85/83
f 29/86/84 16/89/84 52/87/84
f 16/89/85 37/123/85 53/90/85
f 29/86/86 33/88/86 39/91/86
f 37/96/87 16/142/87 54/97/87
f 83/99/15 84/128/15 62/30/15
f 15/100/88 70/63/88 73/62/88
f 7/55/89 71/115/89 57/101/89
f 56/69/3 6/143/3 76/103/3
f 27/104/11 68/139/11 67/37/11
f 66/36/3 68/139/3 27/104/3
f 25/39/44 28/38/44 12/35/44
f 56/4/2 59/6/2 21/105/2
f 62/30/15 84/128/15 80/107/15
f 21/105/90 24/109/90 32/108/90
f 10/18/11 65/48/11 59/6/11
f 24/109/48 60/34/48 57/110/48
f 57/110/48 60/34/48 23/44/48
f 3/10/9 61/12/9 69/51/9
f 38/111/91 78/144/91 77/112/91
f 5/114/43 32/145/43 57/101/43
f 50/85/92 49/84/92 45/67/92
f 67/37/15 25/39/15 9/61/15
f 24/109/11 21/105/11 9/61/11
f 72/7/3 76/103/3 75/116/3
f 2/46/9 75/140/9 34/118/9
f 70/58/19 69/60/19 34/119/19
f 40/42/93 32/145/93 5/114/93
f 86/124/61 85/125/61 79/40/61
f 85/125/61 63/129/61 81/11/61
f 88/126/61 89/130/61 83/99/61
f 64/127/61 86/124/61 80/107/61
f 63/129/61 88/126/61 82/47/61
f 89/130/61 64/127/61 84/128/61
f 19/131/9 85/125/9 86/124/9
f 19/131/9 87/135/9 63/129/9
f 17/133/9 18/136/9 89/130/9
f 20/132/9 86/124/9 64/127/9
f 17/133/9 88/126/9 63/129/9
f 18/136/9 90/134/9 64/127/9
