# Blender v3.1.2 OBJ File: ''
# www.blender.org
mtllib test.mtl
o Cube
v 0.000962 1.000000 1.000000
v 0.000962 -1.000000 1.000000
v 1.000962 1.000000 1.000000
v 0.887738 0.872825 0.498380
v 0.000962 1.000000 -1.000000
v 0.000962 -1.000000 -1.000000
v 2.000962 1.000000 -3.000000
v 1.887738 0.872825 -3.501620
v 0.000962 1.000000 1.000000
v 0.000962 -1.000000 1.000000
v 1.000962 1.000000 1.000000
v 0.887738 0.872825 0.498380
v 0.000962 1.000000 5.000000
v 0.095688 0.983923 4.824618
v 0.075816 1.084287 5.057369
v -0.037409 0.957112 4.555749
v -0.000962 1.000000 1.000000
v -0.000962 -1.000000 1.000000
v -1.000962 1.000000 1.000000
v -0.887738 0.872825 0.498380
v -0.000962 1.000000 -1.000000
v -0.000962 -1.000000 -1.000000
v -2.000962 1.000000 -3.000000
v -1.887738 0.872825 -3.501620
v -0.000962 1.000000 1.000000
v -0.000962 -1.000000 1.000000
v -1.000962 1.000000 1.000000
v -0.887738 0.872825 0.498380
v -0.000962 1.000000 5.000000
v -0.095688 0.983923 4.824618
v -0.075816 1.084287 5.057369
v 0.037409 0.957112 4.555749
vt 0.758746 0.740405
vt 0.926688 0.936493
vt 0.814727 0.964506
vt 0.254503 0.083578
vt 0.283500 0.506282
vt 0.254503 0.559577
vt 0.529668 0.038814
vt 0.283500 0.354220
vt 0.508249 0.000000
vt 0.000000 0.225227
vt 0.283500 0.546349
vt 0.283500 0.546349
vt 0.283500 0.546349
vt 0.510476 0.362192
vt 0.302692 0.538377
vt 0.642208 0.519343
vt 0.631931 0.995446
vt 0.529668 0.544933
vt 0.283500 0.546349
vt 0.283500 0.546349
vt 0.283500 0.546349
vt 0.283500 0.546349
vt 0.283500 0.546349
vt 0.638033 0.973267
vt 0.642208 1.000000
vt 0.616058 0.946388
vt 0.948197 0.142101
vt 0.771028 0.440988
vt 0.771028 0.000000
vt 0.758746 0.000000
vt 0.757281 0.458687
vt 0.529668 0.035460
vt 0.531134 0.096116
vt 0.758746 0.519343
vt 0.926688 0.936493
vt 0.758746 0.740405
vt 0.814727 0.964506
vt 0.254503 0.083578
vt 0.283500 0.506282
vt 0.283500 0.030282
vt 0.283500 0.354220
vt 0.529668 0.038814
vt 0.508249 0.000000
vt 0.000000 0.225227
vt 0.038289 0.000000
vt 0.283500 0.546349
vt 0.283500 0.546349
vt 0.283500 0.546349
vt 0.302692 0.538377
vt 0.510476 0.362192
vt 0.631931 0.995446
vt 0.642208 0.519343
vt 0.529668 0.544933
vt 0.283500 0.546349
vt 0.283500 0.546349
vt 0.283500 0.546349
vt 0.283500 0.546349
vt 0.283500 0.546349
vt 0.638033 0.973267
vt 0.642208 1.000000
vt 0.771028 0.440988
vt 0.948197 0.142101
vt 0.771028 0.000000
vt 0.757281 0.458687
vt 0.758746 0.000000
vt 0.529668 0.035460
vt 0.531134 0.096116
vt 0.926688 0.460279
vt 0.283500 0.030282
vt 0.038289 0.000000
vt 0.529668 0.546350
vt 0.758746 0.460279
vt 0.755408 0.490708
vt 0.926688 0.460279
vt 0.254503 0.559577
vt 0.529668 0.546350
vt 0.616058 0.946388
vt 0.758746 0.460279
vt 0.755408 0.490708
vt 0.758746 0.519343
vn 0.0000 -1.0000 0.0000
vn -0.4671 0.8765 -0.1168
vn 0.7149 -0.6990 0.0159
vn -0.8121 0.5470 -0.2030
vn 0.0000 0.0000 1.0000
vn 1.0000 0.0000 0.0000
vn -0.4707 -0.8241 0.3152
vn 0.9997 0.0000 -0.0248
vn -0.9038 0.3707 -0.2138
vn -0.4530 0.8832 -0.1216
vn 0.4671 0.8765 -0.1168
vn -0.7149 -0.6990 0.0159
vn 0.9038 0.4279 0.0000
vn -1.0000 0.0000 0.0000
vn 0.5562 0.7448 -0.3687
vn -0.9997 0.0000 -0.0248
vn 0.9038 0.3707 -0.2138
vn 0.4530 0.8832 -0.1216
vn 0.7071 0.0000 0.7071
vn -0.9038 0.4279 0.0000
vn 0.6769 -0.7163 0.1692
vn -0.5562 0.7448 -0.3687
vn 0.1673 0.9859 0.0000
vn -0.6169 -0.6923 0.3744
vn -0.7071 0.0000 0.7071
vn 0.8121 0.5470 -0.2030
vn -0.6769 -0.7163 0.1692
vn 0.4707 -0.8241 0.3152
vn -0.1673 0.9859 0.0000
vn 0.6169 -0.6923 0.3744
usemtl Material
s off
f 5/1/1 3/2/1 1/3/1
f 4/4/2 7/5/2 8/6/2
f 7/7/3 6/8/3 8/9/3
f 6/10/4 4/4/4 8/6/4
f 4/11/5 10/12/5 12/13/5
f 5/14/6 2/15/6 6/8/6
f 11/16/1 13/17/1 9/18/1
f 1/19/5 11/20/5 9/21/5
f 3/22/5 12/13/5 11/20/5
f 2/23/5 9/21/5 10/12/5
f 14/24/7 15/25/7 16/26/7
f 9/27/8 14/28/8 10/29/8
f 10/30/9 16/31/9 12/32/9
f 11/33/10 16/31/10 15/34/10
f 19/35/1 21/36/1 17/37/1
f 20/38/11 23/39/11 19/40/11
f 22/41/12 23/42/12 24/43/12
f 22/44/13 20/38/13 18/45/13
f 20/46/5 26/47/5 18/48/5
f 18/49/14 21/50/14 22/41/14
f 29/51/1 27/52/1 25/53/1
f 17/54/5 27/55/5 19/56/5
f 19/56/5 28/57/5 20/46/5
f 18/48/5 25/58/5 17/54/5
f 30/59/15 31/60/15 29/51/15
f 30/61/16 25/62/16 26/63/16
f 32/64/17 26/65/17 28/66/17
f 27/67/18 32/64/18 28/66/18
f 5/1/1 7/68/1 3/2/1
f 4/4/2 3/69/2 7/5/2
f 7/7/19 5/14/19 6/8/19
f 6/10/20 2/70/20 4/4/20
f 4/11/5 2/23/5 10/12/5
f 5/14/6 1/71/6 2/15/6
f 11/16/21 15/25/21 13/17/21
f 1/19/5 3/22/5 11/20/5
f 3/22/5 4/11/5 12/13/5
f 2/23/5 1/19/5 9/21/5
f 14/24/22 13/17/22 15/25/22
f 9/27/23 13/72/23 14/28/23
f 10/30/24 14/73/24 16/31/24
f 11/33/10 12/32/10 16/31/10
f 19/35/1 23/74/1 21/36/1
f 20/38/11 24/75/11 23/39/11
f 22/41/25 21/50/25 23/42/25
f 22/44/26 24/75/26 20/38/26
f 20/46/5 28/57/5 26/47/5
f 18/49/14 17/76/14 21/50/14
f 29/51/27 31/60/27 27/52/27
f 17/54/5 25/58/5 27/55/5
f 19/56/5 27/55/5 28/57/5
f 18/48/5 26/47/5 25/58/5
f 30/59/28 32/77/28 31/60/28
f 30/61/29 29/78/29 25/62/29
f 32/64/30 30/79/30 26/65/30
f 27/67/18 31/80/18 32/64/18
