# Blender v3.1.2 OBJ File: 'playership.blend'
# www.blender.org
mtllib playership.mtl
o Cube
v 0.733062 -0.244354 0.733062
v 0.733062 0.488708 0.733062
v -0.733062 -0.244354 0.733062
v -0.733062 0.488708 0.733062
v 0.733062 -0.244354 -0.733062
v 0.733062 0.488708 -0.733062
v -0.733062 -0.244354 -0.733062
v -0.733062 0.488708 -0.733062
v 0.733062 0.488708 -0.733062
v -0.733062 0.488708 -0.733062
v 0.733062 0.488708 0.733062
v -0.733062 0.488708 0.733062
v 0.733062 0.488708 -0.733062
v -0.733062 0.488708 -0.733062
v 0.505951 0.467494 0.911547
v 0.733062 -0.244354 0.733062
v -0.733062 -0.244354 -0.733062
v -0.733062 -0.244354 0.733062
v -0.505951 0.467494 0.911547
v 0.733062 -0.244354 -0.733062
v 0.733062 0.488708 -0.733062
v -0.733062 0.488708 -0.733062
v 0.733062 0.488708 0.733062
v -0.733062 0.488708 0.733062
v -1.733062 0.266187 -0.288021
v -1.733062 -0.021833 -0.288021
v -1.733062 -0.021833 0.288021
v -1.733062 0.266187 0.288021
v 0.257625 -0.006636 2.733062
v 0.115373 0.272204 2.554577
v -0.257625 -0.006636 2.733062
v -0.115373 0.272204 2.554577
v -0.733062 0.488708 0.733062
v 0.733062 0.488708 0.733062
v -0.257625 0.250990 2.733062
v 0.257625 0.250990 2.733062
v -0.505951 0.354395 0.898105
v 0.505951 0.354395 0.898105
v -0.115373 0.159106 2.541134
v 0.115373 0.159106 2.541134
v -2.498465 0.266187 -0.288021
v -2.498465 -0.021833 -0.288021
v -2.498465 -0.021833 0.288021
v -2.498465 0.266187 0.288021
v -3.051503 0.811275 -1.378196
v -3.051503 -0.566921 -1.378196
v -3.051503 -0.566921 1.378196
v -3.051503 0.811275 1.378196
v 0.380313 0.312334 -1.733062
v -0.380313 0.312334 -1.733062
v -0.380313 -0.067979 -1.733062
v 0.380313 -0.067979 -1.733062
v 0.380313 0.312334 -2.733062
v -0.380313 0.312334 -2.733062
v -0.380313 -0.067979 -2.733062
v 0.380313 -0.067979 -2.733062
v 0.380313 0.312334 -2.914733
v -0.380313 0.312334 -2.914733
v -0.380313 -0.067979 -2.914733
v 0.380313 -0.067979 -2.914733
v 0.774923 0.022108 -2.776096
v 0.774923 0.222246 -2.776096
v 0.774923 0.022108 -2.871699
v 0.774923 0.222246 -2.871699
v -1.806484 0.051588 0.288021
v -1.806484 0.192766 0.288021
v -2.425044 0.051588 0.288021
v -2.425044 0.192766 0.288021
v -1.733062 -0.021833 0.288021
v -1.733062 0.266187 0.288021
v -2.498465 -0.021833 0.288021
v -2.498465 0.266187 0.288021
v -2.069880 0.111705 2.426993
v -2.069880 0.132649 2.426993
v -2.161648 0.111705 2.426993
v -2.161648 0.132649 2.426993
v -0.733062 -0.244354 0.733062
v -0.733062 0.488708 0.733062
v 0.733062 -0.244354 0.733062
v 0.733062 0.488708 0.733062
v -0.733062 -0.244354 -0.733062
v -0.733062 0.488708 -0.733062
v 0.733062 -0.244354 -0.733062
v 0.733062 0.488708 -0.733062
v -0.733062 0.488708 -0.733062
v 0.733062 0.488708 -0.733062
v -0.733062 0.488708 0.733062
v 0.733062 0.488708 0.733062
v -0.733062 0.488708 -0.733062
v 0.733062 0.488708 -0.733062
v -0.505951 0.467494 0.911547
v -0.733062 -0.244354 0.733062
v 0.733062 -0.244354 -0.733062
v 0.733062 -0.244354 0.733062
v 0.505951 0.467494 0.911547
v -0.733062 -0.244354 -0.733062
v -0.733062 0.488708 -0.733062
v 0.733062 0.488708 -0.733062
v -0.733062 0.488708 0.733062
v 0.733062 0.488708 0.733062
v 1.733062 0.266187 -0.288021
v 1.733062 -0.021833 -0.288021
v 1.733062 -0.021833 0.288021
v 1.733062 0.266187 0.288021
v -0.257625 -0.006636 2.733062
v -0.115373 0.272204 2.554577
v 0.257625 -0.006636 2.733062
v 0.115373 0.272204 2.554577
v 0.733062 0.488708 0.733062
v -0.733062 0.488708 0.733062
v 0.257625 0.250990 2.733062
v -0.257625 0.250990 2.733062
v 0.505951 0.354395 0.898105
v -0.505951 0.354395 0.898105
v 0.115373 0.159106 2.541134
v -0.115373 0.159106 2.541134
v 2.498465 0.266187 -0.288021
v 2.498465 -0.021833 -0.288021
v 2.498465 -0.021833 0.288021
v 2.498465 0.266187 0.288021
v 3.051503 0.811275 -1.378196
v 3.051503 -0.566921 -1.378196
v 3.051503 -0.566921 1.378196
v 3.051503 0.811275 1.378196
v -0.380313 0.312334 -1.733062
v 0.380313 0.312334 -1.733062
v 0.380313 -0.067979 -1.733062
v -0.380313 -0.067979 -1.733062
v -0.380313 0.312334 -2.733062
v 0.380313 0.312334 -2.733062
v 0.380313 -0.067979 -2.733062
v -0.380313 -0.067979 -2.733062
v -0.380313 0.312334 -2.914733
v 0.380313 0.312334 -2.914733
v 0.380313 -0.067979 -2.914733
v -0.380313 -0.067979 -2.914733
v -0.774923 0.022108 -2.776096
v -0.774923 0.222246 -2.776096
v -0.774923 0.022108 -2.871699
v -0.774923 0.222246 -2.871699
v 1.806484 0.051588 0.288021
v 1.806484 0.192766 0.288021
v 2.425044 0.051588 0.288021
v 2.425044 0.192766 0.288021
v 1.733062 -0.021833 0.288021
v 1.733062 0.266187 0.288021
v 2.498465 -0.021833 0.288021
v 2.498465 0.266187 0.288021
v 2.069880 0.111705 2.426993
v 2.069880 0.132649 2.426993
v 2.161648 0.111705 2.426993
v 2.161648 0.132649 2.426993
vt 0.193121 0.653476
vt 0.000000 0.653476
vt 0.000000 0.846598
vt 0.290414 0.363077
vt 0.290414 0.363077
vt 0.290414 0.363077
vt 0.290414 0.363077
vt 0.290414 0.363077
vt 0.290414 0.363077
vt 0.290414 0.363077
vt 0.290414 0.363077
vt 0.290414 0.363077
vt 0.290414 0.363077
vt 0.290414 0.363077
vt 0.290414 0.363077
vt 0.290414 0.363077
vt 0.290414 0.363077
vt 0.290414 0.363077
vt 0.290414 0.363077
vt 0.290414 0.363077
vt 0.290414 0.363077
vt 0.997039 0.525047
vt 0.966522 0.390008
vt 0.928594 0.390008
vt 0.193081 0.367046
vt 0.000000 0.363077
vt 0.043760 0.495798
vt 0.193081 0.624516
vt 0.289641 0.624516
vt 0.258050 0.363077
vt 0.707384 0.264479
vt 0.610824 0.264486
vt 0.610824 0.457552
vt 0.514378 0.912543
vt 0.707384 0.912543
vt 0.707382 0.719422
vt 0.290414 0.363077
vt 0.290414 0.363077
vt 0.290414 0.363077
vt 0.290414 0.363077
vt 0.290414 0.363077
vt 0.290414 0.363077
vt 0.290414 0.363077
vt 0.290414 0.363077
vt 0.290414 0.363077
vt 0.610824 0.279394
vt 0.610824 0.086387
vt 0.479114 0.145985
vt 0.000000 0.084848
vt 0.000000 0.277968
vt 0.131705 0.219256
vt 0.096552 0.980209
vt 0.066526 0.846598
vt 0.028590 0.846598
vt 0.570977 0.651507
vt 0.537045 0.651522
vt 0.537045 0.719354
vt 0.707384 0.457545
vt 0.641941 0.719422
vt 0.193243 0.624517
vt 0.193243 0.757732
vt 0.208162 0.757785
vt 0.900506 0.553740
vt 0.707384 0.553740
vt 0.769991 0.817087
vt 0.737301 0.312966
vt 0.870591 0.312966
vt 0.900506 0.289373
vt 0.819151 0.530147
vt 0.788756 0.530147
vt 0.770019 0.553740
vt 0.707384 0.289373
vt 0.837889 0.553740
vt 0.305416 0.942980
vt 0.438706 0.942980
vt 0.387251 0.725799
vt 0.290414 0.363078
vt 0.290414 0.582487
vt 0.305416 0.582486
vt 0.583514 0.643703
vt 0.583514 0.674042
vt 0.598450 0.674127
vt 0.290413 0.801612
vt 0.305416 0.801612
vt 0.305416 0.582488
vt 0.232525 0.143378
vt 0.232525 0.219255
vt 0.305416 0.363077
vt 0.131705 0.143378
vt 0.966669 0.289373
vt 0.479114 0.221818
vt 0.378293 0.145987
vt 0.486954 0.362885
vt 0.305416 0.362863
vt 0.305416 0.725777
vt 0.707384 0.889104
vt 0.707384 0.927043
vt 0.852686 0.998626
vt 0.378293 0.221820
vt 0.305416 0.000000
vt 0.852686 0.888648
vt 0.852686 0.926587
vt 0.994503 0.998625
vt 0.143930 0.497857
vt 0.041053 0.627492
vt 0.684007 0.131685
vt 0.486954 0.651507
vt 0.583514 0.651507
vt 0.560449 0.518445
vt 0.707385 0.289373
vt 0.900465 0.285384
vt 0.851318 0.155527
vt 0.486954 0.703267
vt 0.537045 0.703267
vt 0.525278 0.651507
vt 0.510354 0.518445
vt 0.560433 0.386782
vt 0.633911 0.131688
vt 0.684007 0.000000
vt 0.751148 0.157597
vt 0.848600 0.023911
vt 0.488788 0.725799
vt 0.438706 0.725872
vt 0.438706 0.825879
vt 0.748430 0.025981
vt 0.848107 0.000000
vt 0.141223 0.629551
vt 0.040561 0.651417
vt 0.510338 0.386782
vt 0.560430 0.362863
vt 0.583514 0.674127
vt 0.583514 0.700490
vt 0.596103 0.700491
vt 0.140731 0.653476
vt 0.192822 0.648914
vt 0.900465 0.017581
vt 0.488788 0.825805
vt 0.450433 0.877400
vt 0.900465 0.281725
vt 0.981943 0.281725
vt 0.947253 0.000000
vt 0.290414 0.363077
vt 0.290414 0.363077
vt 0.290414 0.363077
vt 0.290414 0.363077
vt 0.290414 0.363077
vt 0.928771 0.725976
vt 0.938441 0.716306
vt 0.900506 0.716323
vt 0.928771 0.807409
vt 0.910176 0.807417
vt 0.900506 0.817087
vt 0.938441 0.817070
vt 0.910176 0.725984
vt 0.604869 0.362863
vt 0.602110 0.362864
vt 0.602110 0.374946
vt 0.583514 0.643703
vt 0.602110 0.643703
vt 0.594321 0.362863
vt 0.208162 0.906373
vt 0.289641 0.906373
vt 0.254946 0.624516
vt 0.495779 1.000000
vt 0.514375 1.000000
vt 0.506286 0.719422
vt 1.000000 0.846598
vt 1.000000 0.653476
vt 0.806879 0.653476
vt 0.709587 0.363077
vt 0.709587 0.363077
vt 0.709587 0.363077
vt 0.709587 0.363077
vt 0.709587 0.363077
vt 0.709587 0.363077
vt 0.709587 0.363077
vt 0.709587 0.363077
vt 0.709587 0.363077
vt 0.709587 0.363077
vt 0.709587 0.363077
vt 0.709587 0.363077
vt 0.709587 0.363077
vt 0.709587 0.363077
vt 0.709587 0.363077
vt 0.709587 0.363077
vt 0.709587 0.363077
vt 0.033478 0.390008
vt 0.002961 0.525047
vt 0.099494 0.525047
vt 0.956240 0.495798
vt 1.000000 0.363077
vt 0.806919 0.367046
vt 0.710359 0.624516
vt 0.806919 0.624516
vt 0.775885 0.363077
vt 0.389176 0.457552
vt 0.389176 0.264486
vt 0.292616 0.264479
vt 0.292618 0.719422
vt 0.292616 0.912543
vt 0.485622 0.912543
vt 0.709587 0.363077
vt 0.709587 0.363077
vt 0.709587 0.363077
vt 0.709587 0.363077
vt 0.709587 0.363077
vt 0.709587 0.363077
vt 0.709587 0.363077
vt 0.709587 0.363077
vt 0.709587 0.363077
vt 0.709587 0.363077
vt 0.520886 0.145985
vt 0.389176 0.086387
vt 0.389176 0.279394
vt 1.000000 0.277968
vt 1.000000 0.084848
vt 0.868295 0.143378
vt 0.933474 0.846598
vt 0.903448 0.980209
vt 1.000000 0.980209
vt 0.462955 0.719354
vt 0.462955 0.651522
vt 0.429023 0.651507
vt 0.292616 0.457545
vt 0.324124 0.719419
vt 0.791838 0.757785
vt 0.806757 0.757732
vt 0.806757 0.624517
vt 0.230009 0.817087
vt 0.292616 0.553740
vt 0.099494 0.553740
vt 0.099494 0.289373
vt 0.129409 0.312966
vt 0.262699 0.312966
vt 0.229981 0.553740
vt 0.211244 0.530147
vt 0.180849 0.530147
vt 0.162111 0.553740
vt 0.612749 0.725799
vt 0.561294 0.942980
vt 0.694584 0.942980
vt 0.694584 0.582486
vt 0.709586 0.582487
vt 0.709586 0.363078
vt 0.401550 0.674127
vt 0.416486 0.674042
vt 0.416486 0.643703
vt 0.694584 0.801612
vt 0.709587 0.801612
vt 0.709587 0.582487
vt 0.694584 0.363077
vt 0.767475 0.219255
vt 0.767475 0.143378
vt 0.868295 0.219256
vt 0.033331 0.289373
vt 0.071406 0.390008
vt 0.621707 0.145987
vt 0.520886 0.221818
vt 0.694584 0.725777
vt 0.694584 0.362863
vt 0.513046 0.362885
vt 0.147314 0.998626
vt 0.292616 0.927043
vt 0.292616 0.889104
vt 0.694584 0.000000
vt 0.621707 0.221820
vt 0.005497 0.998625
vt 0.147314 0.926587
vt 0.147314 0.888648
vt 0.958947 0.627492
vt 0.856070 0.497857
vt 0.315993 0.131685
vt 0.439551 0.518445
vt 0.416486 0.651507
vt 0.513046 0.651507
vt 0.148682 0.155527
vt 0.099535 0.285384
vt 0.292615 0.289373
vt 0.474722 0.651507
vt 0.462955 0.703267
vt 0.513046 0.703267
vt 0.439567 0.386782
vt 0.489646 0.518445
vt 0.315993 0.000000
vt 0.366089 0.131688
vt 0.151400 0.023911
vt 0.248852 0.157597
vt 0.561294 0.825879
vt 0.561294 0.725872
vt 0.511212 0.725799
vt 0.151893 0.000000
vt 0.251570 0.025981
vt 0.959439 0.651417
vt 0.858777 0.629551
vt 0.439570 0.362863
vt 0.489662 0.386782
vt 0.403897 0.700491
vt 0.416486 0.700490
vt 0.416486 0.674127
vt 0.807178 0.648914
vt 0.859269 0.653476
vt 0.099535 0.017581
vt 0.549567 0.877400
vt 0.511212 0.825805
vt 0.052747 0.000000
vt 0.018057 0.281725
vt 0.099535 0.281725
vt 0.709587 0.363077
vt 0.709587 0.363077
vt 0.709587 0.363077
vt 0.709587 0.363077
vt 0.709587 0.363077
vt 0.071229 0.725976
vt 0.089824 0.725984
vt 0.099494 0.716323
vt 0.099494 0.817087
vt 0.089824 0.807417
vt 0.071229 0.807409
vt 0.061559 0.817070
vt 0.397890 0.374946
vt 0.397890 0.362864
vt 0.395131 0.362863
vt 0.405679 0.362863
vt 0.397890 0.643703
vt 0.416486 0.643703
vt 0.745054 0.624516
vt 0.710359 0.906373
vt 0.791838 0.906373
vt 0.493714 0.719422
vt 0.485625 1.000000
vt 0.504221 1.000000
vt 0.193121 0.846598
vt 0.900506 0.525047
vt 0.224115 0.363077
vt 0.514375 0.719422
vt 0.000000 0.980209
vt 0.570977 0.719339
vt 0.675876 0.719419
vt 0.208162 0.624569
vt 0.837861 0.817087
vt 0.356856 0.725799
vt 0.305416 0.363077
vt 0.598450 0.643789
vt 0.290413 0.582487
vt 0.305416 0.000000
vt 0.928742 0.289373
vt 0.486954 0.725799
vt 0.852686 0.817087
vt 0.994503 0.817087
vt 0.498918 0.651507
vt 0.633911 0.000004
vt 0.747937 0.002070
vt 0.510335 0.362863
vt 0.596103 0.674128
vt 0.193081 0.636323
vt 0.900205 0.004999
vt 0.476788 0.877362
vt 0.935165 0.000000
vt 0.604869 0.374944
vt 0.591562 0.362863
vt 0.242858 0.624516
vt 0.503527 0.719422
vt 0.806879 0.846598
vt 0.741950 0.363077
vt 0.485625 0.719422
vt 0.971410 0.846598
vt 0.429023 0.719339
vt 0.358059 0.719422
vt 0.791838 0.624569
vt 0.162139 0.817087
vt 0.292616 0.289373
vt 0.643144 0.725799
vt 0.694584 0.363077
vt 0.401550 0.643789
vt 0.694584 0.582488
vt 0.694584 0.000000
vt 0.071258 0.289373
vt 0.513046 0.725799
vt 0.147314 0.817087
vt 0.005497 0.817087
vt 0.501082 0.651507
vt 0.366089 0.000004
vt 0.252063 0.002070
vt 0.489665 0.362863
vt 0.403897 0.674128
vt 0.806919 0.636323
vt 0.099795 0.004999
vt 0.523212 0.877362
vt 0.064835 0.000000
vt 0.061559 0.716306
vt 0.395131 0.374944
vt 0.408438 0.362863
vt 0.757142 0.624516
vt 0.496473 0.719422
vn 0.0000 -1.0000 0.0000
vn 0.0000 0.0000 1.0000
vn -0.4066 0.0000 -0.9136
vn 0.0000 -0.9848 -0.1737
vn -0.9729 0.0000 0.2313
vn 1.0000 0.0000 0.0000
vn 0.0000 1.0000 0.0000
vn -0.2172 0.9761 0.0000
vn -0.2172 -0.9761 0.0000
vn -0.4066 0.0000 0.9136
vn 0.9729 0.0000 0.2313
vn 0.0000 -0.1180 0.9930
vn 0.0000 -0.9930 0.1180
vn 0.0000 0.9930 0.1180
vn -0.9733 0.0271 -0.2281
vn 0.0000 0.1180 -0.9930
vn 0.9733 0.0271 -0.2281
vn 0.7020 -0.7122 0.0000
vn 0.0000 0.0000 -1.0000
vn -1.0000 0.0000 0.0000
vn 0.8918 0.0000 -0.4524
vn 0.7020 0.7122 0.0000
vn 0.8918 0.0000 0.4524
vn 0.9430 0.0000 -0.3327
vn -0.9430 0.0000 -0.3327
vn 0.0000 0.9848 -0.1737
vn 0.1084 0.0000 0.9941
vn 0.2226 -0.9749 0.0000
vn 0.2226 0.9749 0.0000
vn 0.1084 0.0000 -0.9941
vn 0.0000 -0.9996 0.0281
vn 0.9925 0.0000 0.1222
vn 0.0000 0.9996 0.0281
vn -0.9925 0.0000 0.1222
vn 0.4066 0.0000 -0.9136
vn 0.2172 0.9761 0.0000
vn 0.2172 -0.9761 0.0000
vn 0.4066 0.0000 0.9136
vn -0.7020 -0.7122 0.0000
vn -0.8918 0.0000 -0.4524
vn -0.7020 0.7122 0.0000
vn -0.8918 0.0000 0.4524
vn -0.1084 0.0000 0.9941
vn -0.2226 -0.9749 0.0000
vn -0.2226 0.9749 0.0000
vn -0.1084 0.0000 -0.9941
usemtl Material
s off
f 5/1/1 1/2/1 3/3/1
f 5/4/2 20/5/2 16/6/2
f 9/7/2 21/8/2 23/9/2
f 6/10/2 9/7/2 11/11/2
f 3/12/2 18/13/2 17/14/2
f 7/15/2 17/14/2 20/5/2
f 10/16/2 22/17/2 21/8/2
f 4/18/2 12/19/2 10/16/2
f 8/20/2 10/16/2 9/7/2
f 2/21/2 11/11/2 12/19/2
f 17/22/3 26/23/3 25/24/3
f 20/25/4 17/26/4 51/27/4
f 33/28/5 18/29/5 31/30/5
f 20/31/6 13/32/6 34/33/6
f 23/34/7 21/35/7 22/36/7
f 6/10/2 13/37/2 14/38/2
f 1/39/2 16/6/2 18/13/2
f 12/19/2 24/40/2 22/17/2
f 4/18/2 33/41/2 34/42/2
f 2/21/2 34/42/2 13/37/2
f 8/20/2 14/38/2 33/41/2
f 11/11/2 23/9/2 24/40/2
f 27/43/2 69/44/2 71/45/2
f 33/46/8 14/47/8 25/48/8
f 17/49/9 18/50/9 27/51/9
f 33/52/10 28/53/10 27/54/10
f 29/55/2 36/56/2 35/57/2
f 16/58/11 34/33/11 36/59/11
f 15/60/12 19/61/12 37/62/12
f 18/63/13 16/64/13 29/65/13
f 19/66/14 15/67/14 34/68/14
f 30/69/14 32/70/14 35/71/14
f 19/66/14 33/72/14 35/71/14
f 15/67/14 30/69/14 36/73/14
f 38/74/14 37/75/14 39/76/14
f 30/77/15 15/78/15 38/79/15
f 32/80/16 30/81/16 40/82/16
f 32/83/17 39/84/17 37/85/17
f 42/86/18 43/87/18 47/88/18
f 26/89/1 27/51/1 43/87/1
f 25/24/19 26/23/19 42/90/19
f 28/91/7 25/48/7 41/92/7
f 47/93/20 48/94/20 45/95/20
f 41/96/21 42/97/21 46/98/21
f 44/99/22 41/92/22 45/100/22
f 43/101/23 44/102/23 48/103/23
f 52/104/1 51/27/1 55/105/1
f 13/32/24 20/31/24 52/106/24
f 17/107/25 14/108/25 50/109/25
f 14/110/26 13/111/26 49/112/26
f 53/113/27 56/114/27 61/115/27
f 51/116/20 50/109/20 54/117/20
f 49/118/6 52/106/6 56/119/6
f 50/120/7 49/112/7 53/121/7
f 59/122/19 58/123/19 57/124/19
f 54/125/7 53/121/7 57/126/7
f 56/127/1 55/105/1 59/128/1
f 55/129/20 54/117/20 58/130/20
f 62/131/6 61/132/6 63/133/6
f 56/127/28 60/134/28 63/135/28
f 57/126/29 53/121/29 62/136/29
f 60/137/30 57/124/30 64/138/30
f 67/139/31 65/140/31 73/141/31
f 28/142/2 70/143/2 69/44/2
f 44/144/2 72/145/2 70/143/2
f 43/146/2 71/45/2 72/145/2
f 65/147/2 69/148/2 70/149/2
f 67/150/2 68/151/2 72/152/2
f 65/147/2 67/150/2 71/153/2
f 68/151/2 66/154/2 70/149/2
f 73/155/2 74/156/2 76/157/2
f 65/158/32 66/159/32 74/160/32
f 66/161/33 68/162/33 76/163/33
f 68/164/34 67/165/34 75/166/34
f 79/167/1 77/168/1 81/169/1
f 81/170/2 77/171/2 92/172/2
f 85/173/2 87/174/2 99/175/2
f 82/176/2 78/177/2 87/174/2
f 79/178/2 83/179/2 93/180/2
f 83/179/2 81/170/2 96/181/2
f 86/182/2 85/173/2 97/183/2
f 80/184/2 84/185/2 86/182/2
f 84/185/2 82/176/2 85/173/2
f 78/177/2 80/184/2 88/186/2
f 102/187/35 93/188/35 90/189/35
f 127/190/4 93/191/4 96/192/4
f 94/193/11 109/194/11 111/195/11
f 110/196/20 89/197/20 96/198/20
f 98/199/7 97/200/7 99/201/7
f 82/176/2 84/185/2 90/202/2
f 77/171/2 79/178/2 94/203/2
f 88/186/2 86/182/2 98/204/2
f 80/184/2 78/177/2 110/205/2
f 78/177/2 82/176/2 89/206/2
f 84/185/2 80/184/2 109/207/2
f 87/174/2 88/186/2 100/208/2
f 103/209/2 119/210/2 147/211/2
f 101/212/36 90/213/36 109/214/36
f 94/215/37 93/216/37 102/217/37
f 104/218/38 109/219/38 94/220/38
f 111/221/2 112/222/2 105/223/2
f 110/196/5 92/224/5 105/225/5
f 113/226/12 95/227/12 91/228/12
f 105/229/13 92/230/13 94/231/13
f 110/232/14 91/233/14 95/234/14
f 111/235/14 108/236/14 106/237/14
f 95/234/14 108/236/14 111/235/14
f 112/238/14 106/237/14 91/233/14
f 115/239/14 113/240/14 114/241/14
f 114/242/17 91/243/17 106/244/17
f 116/245/16 106/246/16 108/247/16
f 115/248/15 108/249/15 95/250/15
f 123/251/39 119/252/39 118/253/39
f 119/252/1 103/254/1 102/217/1
f 118/255/19 102/187/19 101/256/19
f 117/257/7 101/212/7 104/258/7
f 121/259/6 124/260/6 123/261/6
f 122/262/40 118/263/40 117/264/40
f 121/265/41 117/257/41 120/266/41
f 124/267/42 120/268/42 119/269/42
f 131/270/1 127/190/1 128/271/1
f 128/272/25 96/198/25 89/197/25
f 126/273/24 90/274/24 93/275/24
f 125/276/26 89/277/26 90/278/26
f 137/279/43 132/280/43 129/281/43
f 130/282/6 126/273/6 127/283/6
f 132/284/20 128/272/20 125/285/20
f 129/286/7 125/276/7 126/287/7
f 133/288/19 134/289/19 135/290/19
f 133/291/7 129/286/7 130/292/7
f 135/293/1 131/270/1 132/294/1
f 134/295/6 130/282/6 131/296/6
f 139/297/20 137/298/20 138/299/20
f 139/300/44 136/301/44 132/294/44
f 138/302/45 129/286/45 133/291/45
f 140/303/46 133/288/46 136/304/46
f 149/305/31 141/306/31 143/307/31
f 104/308/2 103/209/2 145/309/2
f 120/310/2 104/308/2 146/311/2
f 119/210/2 120/310/2 148/312/2
f 141/313/2 142/314/2 146/315/2
f 148/316/2 144/317/2 143/318/2
f 147/319/2 143/318/2 141/313/2
f 146/315/2 142/314/2 144/317/2
f 152/320/2 150/321/2 149/322/2
f 150/323/34 142/324/34 141/325/34
f 152/326/33 144/327/33 142/328/33
f 151/329/32 143/330/32 144/331/32
f 5/1/1 3/3/1 7/332/1
f 5/4/2 16/6/2 1/39/2
f 9/7/2 23/9/2 11/11/2
f 6/10/2 11/11/2 2/21/2
f 3/12/2 17/14/2 7/15/2
f 7/15/2 20/5/2 5/4/2
f 10/16/2 21/8/2 9/7/2
f 4/18/2 10/16/2 8/20/2
f 8/20/2 9/7/2 6/10/2
f 2/21/2 12/19/2 4/18/2
f 17/22/3 25/24/3 14/333/3
f 20/25/4 51/27/4 52/104/4
f 33/28/5 31/30/5 35/334/5
f 20/31/6 34/33/6 16/58/6
f 23/34/7 22/36/7 24/335/7
f 6/10/2 14/38/2 8/20/2
f 1/39/2 18/13/2 3/12/2
f 12/19/2 22/17/2 10/16/2
f 4/18/2 34/42/2 2/21/2
f 2/21/2 13/37/2 6/10/2
f 8/20/2 33/41/2 4/18/2
f 11/11/2 24/40/2 12/19/2
f 27/43/2 71/45/2 43/146/2
f 33/46/8 25/48/8 28/91/8
f 17/49/9 27/51/9 26/89/9
f 33/52/10 27/54/10 18/336/10
f 29/55/2 35/57/2 31/337/2
f 16/58/11 36/59/11 29/338/11
f 15/60/12 37/62/12 38/339/12
f 18/63/13 29/65/13 31/340/13
f 19/66/14 34/68/14 33/72/14
f 30/69/14 35/71/14 36/73/14
f 19/66/14 35/71/14 32/70/14
f 15/67/14 36/73/14 34/68/14
f 38/74/14 39/76/14 40/341/14
f 30/77/15 38/79/15 40/342/15
f 32/80/16 40/82/16 39/343/16
f 32/83/17 37/85/17 19/344/17
f 42/86/18 47/88/18 46/345/18
f 26/89/1 43/87/1 42/86/1
f 25/24/19 42/90/19 41/346/19
f 28/91/7 41/92/7 44/99/7
f 47/93/20 45/95/20 46/347/20
f 41/96/21 46/98/21 45/348/21
f 44/99/22 45/100/22 48/94/22
f 43/101/23 48/103/23 47/349/23
f 52/104/1 55/105/1 56/127/1
f 13/32/24 52/106/24 49/118/24
f 17/107/25 50/109/25 51/116/25
f 14/110/26 49/112/26 50/120/26
f 53/113/27 61/115/27 62/350/27
f 51/116/20 54/117/20 55/129/20
f 49/118/6 56/119/6 53/351/6
f 50/120/7 53/121/7 54/125/7
f 59/122/19 57/124/19 60/137/19
f 54/125/7 57/126/7 58/352/7
f 56/127/1 59/128/1 60/134/1
f 55/129/20 58/130/20 59/353/20
f 62/131/6 63/133/6 64/354/6
f 56/127/28 63/135/28 61/355/28
f 57/126/29 62/136/29 64/356/29
f 60/137/30 64/138/30 63/357/30
f 67/139/31 73/141/31 75/358/31
f 28/142/2 69/44/2 27/43/2
f 44/144/2 70/143/2 28/142/2
f 43/146/2 72/145/2 44/144/2
f 65/147/2 70/149/2 66/154/2
f 67/150/2 72/152/2 71/153/2
f 65/147/2 71/153/2 69/148/2
f 68/151/2 70/149/2 72/152/2
f 73/155/2 76/157/2 75/359/2
f 65/158/32 74/160/32 73/360/32
f 66/161/33 76/163/33 74/361/33
f 68/164/34 75/166/34 76/362/34
f 79/167/1 81/169/1 83/363/1
f 81/170/2 92/172/2 96/181/2
f 85/173/2 99/175/2 97/183/2
f 82/176/2 87/174/2 85/173/2
f 79/178/2 93/180/2 94/203/2
f 83/179/2 96/181/2 93/180/2
f 86/182/2 97/183/2 98/204/2
f 80/184/2 86/182/2 88/186/2
f 84/185/2 85/173/2 86/182/2
f 78/177/2 88/186/2 87/174/2
f 102/187/35 90/189/35 101/256/35
f 127/190/4 96/192/4 128/271/4
f 94/193/11 111/195/11 107/364/11
f 110/196/20 96/198/20 92/224/20
f 98/199/7 99/201/7 100/365/7
f 82/176/2 90/202/2 89/206/2
f 77/171/2 94/203/2 92/172/2
f 88/186/2 98/204/2 100/208/2
f 80/184/2 110/205/2 109/207/2
f 78/177/2 89/206/2 110/205/2
f 84/185/2 109/207/2 90/202/2
f 87/174/2 100/208/2 99/175/2
f 103/209/2 147/211/2 145/309/2
f 101/212/36 109/214/36 104/258/36
f 94/215/37 102/217/37 103/254/37
f 104/218/38 94/220/38 103/366/38
f 111/221/2 105/223/2 107/367/2
f 110/196/5 105/225/5 112/368/5
f 113/226/12 91/228/12 114/369/12
f 105/229/13 94/231/13 107/370/13
f 110/232/14 95/234/14 109/371/14
f 111/235/14 106/237/14 112/238/14
f 95/234/14 111/235/14 109/371/14
f 112/238/14 91/233/14 110/232/14
f 115/239/14 114/241/14 116/372/14
f 114/242/17 106/244/17 116/373/17
f 116/245/16 108/247/16 115/374/16
f 115/248/15 95/250/15 113/375/15
f 123/251/39 118/253/39 122/376/39
f 119/252/1 102/217/1 118/253/1
f 118/255/19 101/256/19 117/377/19
f 117/257/7 104/258/7 120/266/7
f 121/259/6 123/261/6 122/378/6
f 122/262/40 117/264/40 121/379/40
f 121/265/41 120/266/41 124/260/41
f 124/267/42 119/269/42 123/380/42
f 131/270/1 128/271/1 132/294/1
f 128/272/25 89/197/25 125/285/25
f 126/273/24 93/275/24 127/283/24
f 125/276/26 90/278/26 126/287/26
f 137/279/43 129/281/43 138/381/43
f 130/282/6 127/283/6 131/296/6
f 132/284/20 125/285/20 129/382/20
f 129/286/7 126/287/7 130/292/7
f 133/288/19 135/290/19 136/304/19
f 133/291/7 130/292/7 134/383/7
f 135/293/1 132/294/1 136/301/1
f 134/295/6 131/296/6 135/384/6
f 139/297/20 138/299/20 140/385/20
f 139/300/44 132/294/44 137/386/44
f 138/302/45 133/291/45 140/387/45
f 140/303/46 136/304/46 139/388/46
f 149/305/31 143/307/31 151/389/31
f 104/308/2 145/309/2 146/311/2
f 120/310/2 146/311/2 148/312/2
f 119/210/2 148/312/2 147/211/2
f 141/313/2 146/315/2 145/390/2
f 148/316/2 143/318/2 147/319/2
f 147/319/2 141/313/2 145/390/2
f 146/315/2 144/317/2 148/316/2
f 152/320/2 149/322/2 151/391/2
f 150/323/34 141/325/34 149/392/34
f 152/326/33 142/328/33 150/393/33
f 151/329/32 144/331/32 152/394/32
