# Blender v2.83.3 OBJ File: 'playership.blend'
# www.blender.org
o Cube
v 0.002784 -0.408003 0.358574
v 0.002784 0.325059 0.358574
v -1.463341 -0.408003 0.358574
v -1.463341 0.325059 0.358574
v 0.002784 -0.408003 -1.107551
v 0.002784 0.325059 -1.107551
v -1.463341 -0.408003 -1.107551
v -1.463341 0.325059 -1.107551
v 0.002784 0.325059 -1.107551
v -1.463341 0.325059 -1.107551
v 0.002784 0.325059 0.358574
v -1.463341 0.325059 0.358574
v 0.002784 0.325059 -1.107551
v -1.463341 0.325059 -1.107551
v -0.224327 0.303845 0.537059
v 0.002784 -0.408003 0.358574
v -1.463341 -0.408003 -1.107551
v -1.463341 -0.408003 0.358574
v -1.236230 0.303845 0.537059
v 0.002784 -0.408003 -1.107551
v 0.002784 0.325059 -1.107551
v -1.463341 0.325059 -1.107551
v 0.002784 0.325059 0.358574
v -1.463341 0.325059 0.358574
v -2.463341 0.102538 -0.662510
v -2.463341 -0.185482 -0.662510
v -2.463341 -0.185482 -0.086468
v -2.463341 0.102538 -0.086468
v -0.472653 -0.170285 2.358573
v -0.614905 0.108555 2.180089
v -0.987904 -0.170285 2.358573
v -0.845651 0.108555 2.180089
v -1.463341 0.325059 0.358574
v 0.002784 0.325059 0.358574
v -0.987904 0.087341 2.358573
v -0.472653 0.087341 2.358573
v -1.236230 0.190746 0.523616
v -0.224327 0.190746 0.523616
v -0.845651 -0.004543 2.166646
v -0.614905 -0.004543 2.166646
v -3.228743 0.102538 -0.662510
v -3.228743 -0.185482 -0.662510
v -3.228743 -0.185482 -0.086468
v -3.228743 0.102538 -0.086468
v -3.781781 0.647626 -1.752685
v -3.781781 -0.730570 -1.752685
v -3.781781 -0.730570 1.003707
v -3.781781 0.647626 1.003707
v -0.349965 0.148685 -2.107551
v -1.110591 0.148685 -2.107551
v -1.110591 -0.231628 -2.107551
v -0.349965 -0.231628 -2.107551
v -0.349965 0.148685 -3.107551
v -1.110591 0.148685 -3.107551
v -1.110591 -0.231628 -3.107551
v -0.349965 -0.231628 -3.107551
v -0.349965 0.148685 -3.289222
v -1.110591 0.148685 -3.289222
v -1.110591 -0.231628 -3.289222
v -0.349965 -0.231628 -3.289222
v 0.044644 -0.141541 -3.150585
v 0.044644 0.058597 -3.150585
v 0.044644 -0.141541 -3.246188
v 0.044644 0.058597 -3.246188
v -2.536762 -0.112061 -0.086468
v -2.536762 0.029117 -0.086468
v -3.155322 -0.112061 -0.086468
v -3.155322 0.029117 -0.086468
v -2.463341 -0.185482 -0.086468
v -2.463341 0.102538 -0.086468
v -3.228743 -0.185482 -0.086468
v -3.228743 0.102538 -0.086468
v -2.800158 -0.051944 2.052505
v -2.800158 -0.031000 2.052505
v -2.891926 -0.051944 2.052505
v -2.891926 -0.031000 2.052505
v -0.002784 -0.408003 0.358574
v -0.002784 0.325059 0.358574
v 1.463341 -0.408003 0.358574
v 1.463341 0.325059 0.358574
v -0.002784 -0.408003 -1.107551
v -0.002784 0.325059 -1.107551
v 1.463341 -0.408003 -1.107551
v 1.463341 0.325059 -1.107551
v -0.002784 0.325059 -1.107551
v 1.463341 0.325059 -1.107551
v -0.002784 0.325059 0.358574
v 1.463341 0.325059 0.358574
v -0.002784 0.325059 -1.107551
v 1.463341 0.325059 -1.107551
v 0.224327 0.303845 0.537059
v -0.002784 -0.408003 0.358574
v 1.463341 -0.408003 -1.107551
v 1.463341 -0.408003 0.358574
v 1.236230 0.303845 0.537059
v -0.002784 -0.408003 -1.107551
v -0.002784 0.325059 -1.107551
v 1.463341 0.325059 -1.107551
v -0.002784 0.325059 0.358574
v 1.463341 0.325059 0.358574
v 2.463341 0.102538 -0.662510
v 2.463341 -0.185482 -0.662510
v 2.463341 -0.185482 -0.086468
v 2.463341 0.102538 -0.086468
v 0.472653 -0.170285 2.358573
v 0.614905 0.108555 2.180089
v 0.987904 -0.170285 2.358573
v 0.845651 0.108555 2.180089
v 1.463341 0.325059 0.358574
v -0.002784 0.325059 0.358574
v 0.987904 0.087341 2.358573
v 0.472653 0.087341 2.358573
v 1.236230 0.190746 0.523616
v 0.224327 0.190746 0.523616
v 0.845651 -0.004543 2.166646
v 0.614905 -0.004543 2.166646
v 3.228743 0.102538 -0.662510
v 3.228743 -0.185482 -0.662510
v 3.228743 -0.185482 -0.086468
v 3.228743 0.102538 -0.086468
v 3.781781 0.647626 -1.752685
v 3.781781 -0.730570 -1.752685
v 3.781781 -0.730570 1.003707
v 3.781781 0.647626 1.003707
v 0.349965 0.148685 -2.107551
v 1.110591 0.148685 -2.107551
v 1.110591 -0.231628 -2.107551
v 0.349965 -0.231628 -2.107551
v 0.349965 0.148685 -3.107551
v 1.110591 0.148685 -3.107551
v 1.110591 -0.231628 -3.107551
v 0.349965 -0.231628 -3.107551
v 0.349965 0.148685 -3.289222
v 1.110591 0.148685 -3.289222
v 1.110591 -0.231628 -3.289222
v 0.349965 -0.231628 -3.289222
v -0.044644 -0.141541 -3.150585
v -0.044644 0.058597 -3.150585
v -0.044644 -0.141541 -3.246188
v -0.044644 0.058597 -3.246188
v 2.536762 -0.112061 -0.086468
v 2.536762 0.029117 -0.086468
v 3.155322 -0.112061 -0.086468
v 3.155322 0.029117 -0.086468
v 2.463341 -0.185482 -0.086468
v 2.463341 0.102538 -0.086468
v 3.228743 -0.185482 -0.086468
v 3.228743 0.102538 -0.086468
v 2.800158 -0.051944 2.052505
v 2.800158 -0.031000 2.052505
v 2.891926 -0.051944 2.052505
v 2.891926 -0.031000 2.052505
vt 0.193694 0.654376
vt 0.000000 0.654375
vt 0.000000 0.847763
vt 0.000000 0.000000
vt 0.000000 0.000000
vt 0.000000 0.000000
vt 0.000000 0.000000
vt 0.000000 0.000000
vt 0.000000 0.000000
vt 0.000000 0.000000
vt 0.000000 0.000000
vt 0.000000 0.000000
vt 0.000000 0.000000
vt 0.000000 0.000000
vt 0.000000 0.000000
vt 0.000000 0.000000
vt 0.000000 0.000000
vt 0.000000 0.000000
vt 0.000000 0.000000
vt 0.000000 0.000000
vt 0.000000 0.000000
vt 0.903180 0.525770
vt 1.000000 0.525770
vt 0.969393 0.390545
vt 0.193654 0.367551
vt 0.000000 0.363577
vt 0.043890 0.496480
vt 0.193654 0.625376
vt 0.290501 0.625376
vt 0.258817 0.363577
vt 0.612638 0.455569
vt 0.709485 0.455562
vt 0.709485 0.262230
vt 0.709483 0.720412
vt 0.515903 0.720412
vt 0.515905 0.913799
vt 0.000000 0.000000
vt 0.000000 0.000000
vt 0.000000 0.000000
vt 0.000000 0.000000
vt 0.000000 0.000000
vt 0.000000 0.000000
vt 0.000000 0.000000
vt 0.000000 0.000000
vt 0.000000 0.000000
vt 0.306323 0.083584
vt 0.306323 0.276857
vt 0.438424 0.217176
vt 0.000000 0.084964
vt 0.000000 0.278351
vt 0.132096 0.219557
vt 0.000000 0.981558
vt 0.096839 0.981558
vt 0.066723 0.847763
vt 0.572673 0.652404
vt 0.538640 0.652419
vt 0.538640 0.720344
vt 0.612638 0.262237
vt 0.678276 0.000000
vt 0.208781 0.758828
vt 0.208781 0.625429
vt 0.193817 0.625376
vt 0.709485 0.818212
vt 0.903180 0.818212
vt 0.840388 0.554502
vt 0.873175 0.530877
vt 0.739489 0.530877
vt 0.709485 0.554502
vt 0.791082 0.313397
vt 0.821567 0.313397
vt 0.840359 0.289772
vt 0.903180 0.554502
vt 0.772288 0.289772
vt 0.306323 0.944278
vt 0.440009 0.944278
vt 0.388401 0.726798
vt 0.305548 0.363577
vt 0.290501 0.363578
vt 0.290501 0.583289
vt 0.600227 0.675055
vt 0.600227 0.644675
vt 0.585247 0.644589
vt 0.290501 0.583289
vt 0.290501 0.802715
vt 0.305548 0.802716
vt 0.233216 0.143576
vt 0.233216 0.219557
vt 0.306323 0.363577
vt 0.132096 0.143576
vt 0.931352 0.390545
vt 0.969540 0.289772
vt 0.438424 0.141239
vt 0.539545 0.217175
vt 0.306323 0.726776
vt 0.488400 0.726798
vt 0.488400 0.363384
vt 0.709485 0.890328
vt 0.709485 0.928319
vt 0.855219 1.000000
vt 0.539545 0.141238
vt 0.612638 0.363363
vt 0.855219 0.889872
vt 0.855219 0.927862
vt 0.997457 1.000000
vt 0.144358 0.498542
vt 0.041175 0.628356
vt 0.636086 0.588546
vt 0.585247 0.363363
vt 0.488400 0.363363
vt 0.511534 0.496608
vt 0.709485 0.289772
vt 0.903139 0.285776
vt 0.853847 0.155741
vt 0.538640 0.652404
vt 0.488400 0.652404
vt 0.500202 0.704235
vt 0.561778 0.496608
vt 0.511549 0.628451
vt 0.686330 0.588542
vt 0.636086 0.720412
vt 0.753379 0.157814
vt 0.851121 0.023944
vt 0.440009 0.878608
vt 0.490239 0.878534
vt 0.490239 0.778390
vt 0.750653 0.026016
vt 0.850626 0.000000
vt 0.141642 0.630418
vt 0.040681 0.652313
vt 0.561793 0.628451
vt 0.511552 0.652404
vt 0.585247 0.675055
vt 0.585247 0.701454
vt 0.597874 0.701455
vt 0.141149 0.654375
vt 0.193395 0.649807
vt 0.903139 0.017606
vt 0.440009 0.778463
vt 0.478478 0.726798
vt 0.903139 0.282113
vt 0.984859 0.282113
vt 0.950066 0.000000
vt 0.000000 0.000000
vt 0.000000 0.000000
vt 0.000000 0.000000
vt 0.000000 0.000000
vt 0.000000 0.000000
vt 0.125188 0.857446
vt 0.134887 0.847763
vt 0.096839 0.847780
vt 0.125188 0.938991
vt 0.106538 0.938999
vt 0.096839 0.948683
vt 0.134887 0.948666
vt 0.106538 0.857455
vt 0.603898 0.375462
vt 0.606665 0.375460
vt 0.606665 0.363363
vt 0.603898 0.644589
vt 0.596086 0.363363
vt 0.593319 0.363363
vt 0.290501 0.625376
vt 0.208781 0.625376
vt 0.243578 0.907620
vt 0.903180 0.806734
vt 0.921832 0.806734
vt 0.913719 0.525770
vt 0.000000 0.847763
vt 0.000000 0.654375
vt 0.193694 0.654376
vt 0.000000 0.000000
vt 0.000000 0.000000
vt 0.000000 0.000000
vt 0.000000 0.000000
vt 0.000000 0.000000
vt 0.000000 0.000000
vt 0.000000 0.000000
vt 0.000000 0.000000
vt 0.000000 0.000000
vt 0.000000 0.000000
vt 0.000000 0.000000
vt 0.000000 0.000000
vt 0.000000 0.000000
vt 0.000000 0.000000
vt 0.000000 0.000000
vt 0.000000 0.000000
vt 0.000000 0.000000
vt 1.000000 0.525770
vt 0.903180 0.525770
vt 0.931352 0.390545
vt 0.043890 0.496480
vt 0.000000 0.363577
vt 0.193654 0.367551
vt 0.258817 0.363577
vt 0.290501 0.625376
vt 0.193654 0.625376
vt 0.709485 0.262230
vt 0.709485 0.455562
vt 0.612638 0.455569
vt 0.515905 0.913799
vt 0.515903 0.720412
vt 0.709483 0.720412
vt 0.000000 0.000000
vt 0.000000 0.000000
vt 0.000000 0.000000
vt 0.000000 0.000000
vt 0.000000 0.000000
vt 0.000000 0.000000
vt 0.000000 0.000000
vt 0.000000 0.000000
vt 0.000000 0.000000
vt 0.000000 0.000000
vt 0.306323 0.276857
vt 0.306323 0.083584
vt 0.438424 0.141239
vt 0.000000 0.278351
vt 0.000000 0.084964
vt 0.132096 0.143576
vt 0.066723 0.847763
vt 0.096839 0.981558
vt 0.000000 0.981558
vt 0.538640 0.720344
vt 0.538640 0.652419
vt 0.572673 0.652404
vt 0.678276 0.000000
vt 0.612638 0.262237
vt 0.193817 0.625376
vt 0.208781 0.625429
vt 0.208781 0.758828
vt 0.840388 0.554502
vt 0.903180 0.818212
vt 0.709485 0.818212
vt 0.709485 0.554502
vt 0.739489 0.530877
vt 0.873175 0.530877
vt 0.840359 0.289772
vt 0.821567 0.313397
vt 0.791082 0.313397
vt 0.772288 0.289772
vt 0.388401 0.726798
vt 0.440009 0.944278
vt 0.306323 0.944278
vt 0.290501 0.363578
vt 0.305548 0.363577
vt 0.305548 0.583288
vt 0.585247 0.644589
vt 0.600227 0.644675
vt 0.600227 0.675055
vt 0.305548 0.802716
vt 0.290501 0.802715
vt 0.290501 0.583289
vt 0.306323 0.363577
vt 0.233216 0.219557
vt 0.233216 0.143576
vt 0.132096 0.219557
vt 0.969540 0.289772
vt 0.969393 0.390545
vt 0.539545 0.217175
vt 0.438424 0.217176
vt 0.488400 0.363384
vt 0.488400 0.726798
vt 0.306323 0.726776
vt 0.855219 1.000000
vt 0.709485 0.928319
vt 0.709485 0.890328
vt 0.612638 0.363363
vt 0.539545 0.141238
vt 0.997457 1.000000
vt 0.855219 0.927862
vt 0.855219 0.889872
vt 0.041175 0.628356
vt 0.144358 0.498542
vt 0.636086 0.588546
vt 0.511534 0.496608
vt 0.488400 0.363363
vt 0.585247 0.363363
vt 0.853847 0.155741
vt 0.903139 0.285776
vt 0.709485 0.289772
vt 0.500202 0.704235
vt 0.488400 0.652404
vt 0.538640 0.652404
vt 0.511549 0.628451
vt 0.561778 0.496608
vt 0.636086 0.720412
vt 0.686330 0.588542
vt 0.851121 0.023944
vt 0.753379 0.157814
vt 0.490239 0.778390
vt 0.490239 0.878534
vt 0.440009 0.878608
vt 0.850626 0.000000
vt 0.750653 0.026016
vt 0.040681 0.652313
vt 0.141642 0.630418
vt 0.511552 0.652404
vt 0.561793 0.628451
vt 0.597874 0.701455
vt 0.585247 0.701454
vt 0.585247 0.675055
vt 0.193395 0.649807
vt 0.141149 0.654375
vt 0.903139 0.017606
vt 0.478478 0.726798
vt 0.440009 0.778463
vt 0.950066 0.000000
vt 0.984859 0.282113
vt 0.903139 0.282113
vt 0.000000 0.000000
vt 0.000000 0.000000
vt 0.000000 0.000000
vt 0.000000 0.000000
vt 0.000000 0.000000
vt 0.125188 0.857446
vt 0.106538 0.857455
vt 0.096839 0.847780
vt 0.096839 0.948683
vt 0.106538 0.938999
vt 0.125188 0.938991
vt 0.134887 0.948666
vt 0.606665 0.363363
vt 0.606665 0.375460
vt 0.603898 0.375462
vt 0.596086 0.363363
vt 0.603898 0.644589
vt 0.585247 0.644589
vt 0.243578 0.907620
vt 0.208781 0.625376
vt 0.290501 0.625376
vt 0.913719 0.525770
vt 0.921832 0.806734
vt 0.903180 0.806734
vt 0.193694 0.847763
vt 0.224781 0.363577
vt 0.709485 0.913799
vt 0.028675 0.847763
vt 0.572673 0.720329
vt 0.644241 0.000003
vt 0.193817 0.758775
vt 0.772316 0.554502
vt 0.357916 0.726798
vt 0.305548 0.583288
vt 0.585247 0.674970
vt 0.305548 0.583289
vt 0.306323 0.000000
vt 0.931500 0.289772
vt 0.306323 0.363363
vt 0.855219 0.818212
vt 0.612638 0.000000
vt 0.997457 0.818212
vt 0.526641 0.704235
vt 0.686330 0.720408
vt 0.750158 0.002073
vt 0.561796 0.652404
vt 0.597874 0.675056
vt 0.193654 0.637199
vt 0.902879 0.005005
vt 0.452045 0.726836
vt 0.937943 0.000000
vt 0.603898 0.363364
vt 0.585247 0.644589
vt 0.255702 0.907620
vt 0.910952 0.525770
vt 0.193694 0.847763
vt 0.224781 0.363577
vt 0.709485 0.913799
vt 0.028675 0.847763
vt 0.572673 0.720329
vt 0.644241 0.000003
vt 0.193817 0.758775
vt 0.772316 0.554502
vt 0.903180 0.554502
vt 0.357916 0.726798
vt 0.290501 0.583289
vt 0.585247 0.674970
vt 0.305548 0.583289
vt 0.306323 0.000000
vt 0.931500 0.289772
vt 0.306323 0.363363
vt 0.855219 0.818212
vt 0.612638 0.000000
vt 0.997457 0.818212
vt 0.526641 0.704235
vt 0.686330 0.720408
vt 0.750158 0.002073
vt 0.561796 0.652404
vt 0.597874 0.675056
vt 0.193654 0.637199
vt 0.902879 0.005005
vt 0.452045 0.726836
vt 0.937943 0.000000
vt 0.134887 0.847763
vt 0.603898 0.363364
vt 0.593319 0.363363
vt 0.255702 0.907620
vt 0.910952 0.525770
vn 0.0000 -1.0000 0.0000
vn 0.0000 0.0000 1.0000
vn -0.4066 0.0000 -0.9136
vn 0.0000 -0.9848 -0.1737
vn -0.9729 0.0000 0.2313
vn 1.0000 0.0000 0.0000
vn 0.0000 1.0000 0.0000
vn -0.2172 0.9761 0.0000
vn -0.2172 -0.9761 0.0000
vn -0.4066 0.0000 0.9136
vn 0.9729 0.0000 0.2313
vn 0.0000 -0.1180 0.9930
vn 0.0000 -0.9930 0.1180
vn 0.0000 0.9930 0.1180
vn -0.9733 0.0271 -0.2281
vn 0.0000 0.1180 -0.9930
vn 0.9733 0.0271 -0.2281
vn 0.7020 -0.7122 0.0000
vn 0.0000 0.0000 -1.0000
vn -1.0000 0.0000 0.0000
vn 0.8918 0.0000 -0.4524
vn 0.7020 0.7122 0.0000
vn 0.8918 0.0000 0.4524
vn 0.9430 0.0000 -0.3327
vn -0.9430 0.0000 -0.3327
vn 0.0000 0.9848 -0.1737
vn 0.1084 0.0000 0.9941
vn 0.2226 -0.9749 0.0000
vn 0.2226 0.9749 0.0000
vn 0.1084 0.0000 -0.9941
vn 0.0000 -0.9996 0.0281
vn 0.9925 0.0000 0.1222
vn 0.0000 0.9996 0.0281
vn -0.9925 0.0000 0.1222
vn 0.4066 0.0000 -0.9136
vn 0.2172 0.9761 0.0000
vn 0.2172 -0.9761 0.0000
vn 0.4066 0.0000 0.9136
vn -0.7020 -0.7122 0.0000
vn -0.8918 0.0000 -0.4524
vn -0.7020 0.7122 0.0000
vn -0.8918 0.0000 0.4524
vn -0.1084 0.0000 0.9941
vn -0.2226 -0.9749 0.0000
vn -0.2226 0.9749 0.0000
vn -0.1084 0.0000 -0.9941
s off
f 5/1/1 1/2/1 3/3/1
f 5/4/2 20/5/2 16/6/2
f 9/7/2 21/8/2 23/9/2
f 6/10/2 9/7/2 11/11/2
f 3/12/2 18/13/2 17/14/2
f 7/15/2 17/14/2 20/5/2
f 10/16/2 22/17/2 21/8/2
f 4/18/2 12/19/2 10/16/2
f 8/20/2 10/16/2 9/7/2
f 2/21/2 11/11/2 12/19/2
f 14/22/3 17/23/3 26/24/3
f 20/25/4 17/26/4 51/27/4
f 33/28/5 18/29/5 31/30/5
f 20/31/6 13/32/6 34/33/6
f 23/34/7 21/35/7 22/36/7
f 6/10/2 13/37/2 14/38/2
f 1/39/2 16/6/2 18/13/2
f 12/19/2 24/40/2 22/17/2
f 4/18/2 33/41/2 34/42/2
f 2/21/2 34/42/2 13/37/2
f 8/20/2 14/38/2 33/41/2
f 11/11/2 23/9/2 24/40/2
f 27/43/2 69/44/2 71/45/2
f 33/46/8 14/47/8 25/48/8
f 17/49/9 18/50/9 27/51/9
f 18/52/10 33/53/10 28/54/10
f 29/55/2 36/56/2 35/57/2
f 16/58/11 34/33/11 36/59/11
f 15/60/12 19/61/12 37/62/12
f 18/63/13 16/64/13 29/65/13
f 19/66/14 15/67/14 34/68/14
f 30/69/14 32/70/14 35/71/14
f 19/66/14 33/72/14 35/71/14
f 15/67/14 30/69/14 36/73/14
f 38/74/14 37/75/14 39/76/14
f 15/77/15 38/78/15 40/79/15
f 32/80/16 30/81/16 40/82/16
f 19/83/17 32/84/17 39/85/17
f 42/86/18 43/87/18 47/88/18
f 26/89/1 27/51/1 43/87/1
f 25/90/19 26/24/19 42/91/19
f 28/92/7 25/48/7 41/93/7
f 47/94/20 48/95/20 45/96/20
f 41/97/21 42/98/21 46/99/21
f 44/100/22 41/93/22 45/101/22
f 43/102/23 44/103/23 48/104/23
f 52/105/1 51/27/1 55/106/1
f 13/32/24 20/31/24 52/107/24
f 17/108/25 14/109/25 50/110/25
f 14/111/26 13/112/26 49/113/26
f 53/114/27 56/115/27 61/116/27
f 51/117/20 50/110/20 54/118/20
f 49/119/6 52/107/6 56/120/6
f 50/121/7 49/113/7 53/122/7
f 59/123/19 58/124/19 57/125/19
f 54/126/7 53/122/7 57/127/7
f 56/128/1 55/106/1 59/129/1
f 55/130/20 54/118/20 58/131/20
f 62/132/6 61/133/6 63/134/6
f 56/128/28 60/135/28 63/136/28
f 57/127/29 53/122/29 62/137/29
f 60/138/30 57/125/30 64/139/30
f 67/140/31 65/141/31 73/142/31
f 28/143/2 70/144/2 69/44/2
f 44/145/2 72/146/2 70/144/2
f 43/147/2 71/45/2 72/146/2
f 65/148/2 69/149/2 70/150/2
f 67/151/2 68/152/2 72/153/2
f 65/148/2 67/151/2 71/154/2
f 68/152/2 66/155/2 70/150/2
f 73/156/2 74/157/2 76/158/2
f 66/159/32 74/160/32 73/161/32
f 66/162/33 68/163/33 76/164/33
f 68/165/34 67/166/34 75/167/34
f 79/168/1 77/169/1 81/170/1
f 81/171/2 77/172/2 92/173/2
f 85/174/2 87/175/2 99/176/2
f 82/177/2 78/178/2 87/175/2
f 79/179/2 83/180/2 93/181/2
f 83/180/2 81/171/2 96/182/2
f 86/183/2 85/174/2 97/184/2
f 80/185/2 84/186/2 86/183/2
f 84/186/2 82/177/2 85/174/2
f 78/178/2 80/185/2 88/187/2
f 93/188/35 90/189/35 101/190/35
f 127/191/4 93/192/4 96/193/4
f 107/194/11 94/195/11 109/196/11
f 110/197/20 89/198/20 96/199/20
f 98/200/7 97/201/7 99/202/7
f 82/177/2 84/186/2 90/203/2
f 77/172/2 79/179/2 94/204/2
f 88/187/2 86/183/2 98/205/2
f 80/185/2 78/178/2 110/206/2
f 78/178/2 82/177/2 89/207/2
f 84/186/2 80/185/2 109/208/2
f 87/175/2 88/187/2 100/209/2
f 103/210/2 119/211/2 147/212/2
f 90/213/36 109/214/36 104/215/36
f 94/216/37 93/217/37 102/218/37
f 104/219/38 109/220/38 94/221/38
f 111/222/2 112/223/2 105/224/2
f 112/225/5 110/197/5 92/226/5
f 113/227/12 95/228/12 91/229/12
f 105/230/13 92/231/13 94/232/13
f 110/233/14 91/234/14 95/235/14
f 111/236/14 108/237/14 106/238/14
f 95/235/14 108/237/14 111/236/14
f 112/239/14 106/238/14 91/234/14
f 115/240/14 113/241/14 114/242/14
f 114/243/17 91/244/17 106/245/17
f 116/246/16 106/247/16 108/248/16
f 115/249/15 108/250/15 95/251/15
f 123/252/39 119/253/39 118/254/39
f 119/253/1 103/255/1 102/218/1
f 118/256/19 102/257/19 101/190/19
f 117/258/7 101/259/7 104/215/7
f 121/260/6 124/261/6 123/262/6
f 122/263/40 118/264/40 117/265/40
f 121/266/41 117/258/41 120/267/41
f 124/268/42 120/269/42 119/270/42
f 131/271/1 127/191/1 128/272/1
f 128/273/25 96/199/25 89/198/25
f 126/274/24 90/275/24 93/276/24
f 125/277/26 89/278/26 90/279/26
f 137/280/43 132/281/43 129/282/43
f 130/283/6 126/274/6 127/284/6
f 132/285/20 128/273/20 125/286/20
f 129/287/7 125/277/7 126/288/7
f 133/289/19 134/290/19 135/291/19
f 133/292/7 129/287/7 130/293/7
f 135/294/1 131/271/1 132/295/1
f 134/296/6 130/283/6 131/297/6
f 139/298/20 137/299/20 138/300/20
f 139/301/44 136/302/44 132/295/44
f 138/303/45 129/287/45 133/292/45
f 140/304/46 133/289/46 136/305/46
f 149/306/31 141/307/31 143/308/31
f 104/309/2 103/210/2 145/310/2
f 120/311/2 104/309/2 146/312/2
f 119/211/2 120/311/2 148/313/2
f 141/314/2 142/315/2 146/316/2
f 148/317/2 144/318/2 143/319/2
f 147/320/2 143/319/2 141/314/2
f 146/316/2 142/315/2 144/318/2
f 152/321/2 150/322/2 149/323/2
f 150/324/34 142/325/34 141/326/34
f 152/327/33 144/328/33 142/329/33
f 151/330/32 143/331/32 144/332/32
f 5/1/1 3/3/1 7/333/1
f 5/4/2 16/6/2 1/39/2
f 9/7/2 23/9/2 11/11/2
f 6/10/2 11/11/2 2/21/2
f 3/12/2 17/14/2 7/15/2
f 7/15/2 20/5/2 5/4/2
f 10/16/2 21/8/2 9/7/2
f 4/18/2 10/16/2 8/20/2
f 8/20/2 9/7/2 6/10/2
f 2/21/2 12/19/2 4/18/2
f 14/22/3 26/24/3 25/90/3
f 20/25/4 51/27/4 52/105/4
f 33/28/5 31/30/5 35/334/5
f 20/31/6 34/33/6 16/58/6
f 23/34/7 22/36/7 24/335/7
f 6/10/2 14/38/2 8/20/2
f 1/39/2 18/13/2 3/12/2
f 12/19/2 22/17/2 10/16/2
f 4/18/2 34/42/2 2/21/2
f 2/21/2 13/37/2 6/10/2
f 8/20/2 33/41/2 4/18/2
f 11/11/2 24/40/2 12/19/2
f 27/43/2 71/45/2 43/147/2
f 33/46/8 25/48/8 28/92/8
f 17/49/9 27/51/9 26/89/9
f 18/52/10 28/54/10 27/336/10
f 29/55/2 35/57/2 31/337/2
f 16/58/11 36/59/11 29/338/11
f 15/60/12 37/62/12 38/339/12
f 18/63/13 29/65/13 31/340/13
f 19/66/14 34/68/14 33/72/14
f 30/69/14 35/71/14 36/73/14
f 19/66/14 35/71/14 32/70/14
f 15/67/14 36/73/14 34/68/14
f 38/74/14 39/76/14 40/341/14
f 15/77/15 40/79/15 30/342/15
f 32/80/16 40/82/16 39/343/16
f 19/83/17 39/85/17 37/344/17
f 42/86/18 47/88/18 46/345/18
f 26/89/1 43/87/1 42/86/1
f 25/90/19 42/91/19 41/346/19
f 28/92/7 41/93/7 44/100/7
f 47/94/20 45/96/20 46/347/20
f 41/97/21 46/99/21 45/348/21
f 44/100/22 45/101/22 48/349/22
f 43/102/23 48/104/23 47/350/23
f 52/105/1 55/106/1 56/128/1
f 13/32/24 52/107/24 49/119/24
f 17/108/25 50/110/25 51/117/25
f 14/111/26 49/113/26 50/121/26
f 53/114/27 61/116/27 62/351/27
f 51/117/20 54/118/20 55/130/20
f 49/119/6 56/120/6 53/352/6
f 50/121/7 53/122/7 54/126/7
f 59/123/19 57/125/19 60/138/19
f 54/126/7 57/127/7 58/353/7
f 56/128/1 59/129/1 60/135/1
f 55/130/20 58/131/20 59/354/20
f 62/132/6 63/134/6 64/355/6
f 56/128/28 63/136/28 61/356/28
f 57/127/29 62/137/29 64/357/29
f 60/138/30 64/139/30 63/358/30
f 67/140/31 73/142/31 75/359/31
f 28/143/2 69/44/2 27/43/2
f 44/145/2 70/144/2 28/143/2
f 43/147/2 72/146/2 44/145/2
f 65/148/2 70/150/2 66/155/2
f 67/151/2 72/153/2 71/154/2
f 65/148/2 71/154/2 69/149/2
f 68/152/2 70/150/2 72/153/2
f 73/156/2 76/158/2 75/360/2
f 66/159/32 73/161/32 65/361/32
f 66/162/33 76/164/33 74/362/33
f 68/165/34 75/167/34 76/363/34
f 79/168/1 81/170/1 83/364/1
f 81/171/2 92/173/2 96/182/2
f 85/174/2 99/176/2 97/184/2
f 82/177/2 87/175/2 85/174/2
f 79/179/2 93/181/2 94/204/2
f 83/180/2 96/182/2 93/181/2
f 86/183/2 97/184/2 98/205/2
f 80/185/2 86/183/2 88/187/2
f 84/186/2 85/174/2 86/183/2
f 78/178/2 88/187/2 87/175/2
f 93/188/35 101/190/35 102/257/35
f 127/191/4 96/193/4 128/272/4
f 107/194/11 109/196/11 111/365/11
f 110/197/20 96/199/20 92/226/20
f 98/200/7 99/202/7 100/366/7
f 82/177/2 90/203/2 89/207/2
f 77/172/2 94/204/2 92/173/2
f 88/187/2 98/205/2 100/209/2
f 80/185/2 110/206/2 109/208/2
f 78/178/2 89/207/2 110/206/2
f 84/186/2 109/208/2 90/203/2
f 87/175/2 100/209/2 99/176/2
f 103/210/2 147/212/2 145/310/2
f 90/213/36 104/215/36 101/259/36
f 94/216/37 102/218/37 103/255/37
f 104/219/38 94/221/38 103/367/38
f 111/222/2 105/224/2 107/368/2
f 112/225/5 92/226/5 105/369/5
f 113/227/12 91/229/12 114/370/12
f 105/230/13 94/232/13 107/371/13
f 110/233/14 95/235/14 109/372/14
f 111/236/14 106/238/14 112/239/14
f 95/235/14 111/236/14 109/372/14
f 112/239/14 91/234/14 110/233/14
f 115/240/14 114/242/14 116/373/14
f 114/243/17 106/245/17 116/374/17
f 116/246/16 108/248/16 115/375/16
f 115/249/15 95/251/15 113/376/15
f 123/252/39 118/254/39 122/377/39
f 119/253/1 102/218/1 118/254/1
f 118/256/19 101/190/19 117/378/19
f 117/258/7 104/215/7 120/267/7
f 121/260/6 123/262/6 122/379/6
f 122/263/40 117/265/40 121/380/40
f 121/266/41 120/267/41 124/381/41
f 124/268/42 119/270/42 123/382/42
f 131/271/1 128/272/1 132/295/1
f 128/273/25 89/198/25 125/286/25
f 126/274/24 93/276/24 127/284/24
f 125/277/26 90/279/26 126/288/26
f 137/280/43 129/282/43 138/383/43
f 130/283/6 127/284/6 131/297/6
f 132/285/20 125/286/20 129/384/20
f 129/287/7 126/288/7 130/293/7
f 133/289/19 135/291/19 136/305/19
f 133/292/7 130/293/7 134/385/7
f 135/294/1 132/295/1 136/302/1
f 134/296/6 131/297/6 135/386/6
f 139/298/20 138/300/20 140/387/20
f 139/301/44 132/295/44 137/388/44
f 138/303/45 133/292/45 140/389/45
f 140/304/46 136/305/46 139/390/46
f 149/306/31 143/308/31 151/391/31
f 104/309/2 145/310/2 146/312/2
f 120/311/2 146/312/2 148/313/2
f 119/211/2 148/313/2 147/212/2
f 141/314/2 146/316/2 145/392/2
f 148/317/2 143/319/2 147/320/2
f 147/320/2 141/314/2 145/392/2
f 146/316/2 144/318/2 148/317/2
f 152/321/2 149/323/2 151/393/2
f 150/324/34 141/326/34 149/394/34
f 152/327/33 142/329/33 150/395/33
f 151/330/32 144/332/32 152/396/32
